<?xml version="1.0" encoding="UTF-8"?> <svg xmlns="http://www.w3.org/2000/svg" id="katman_2" data-name="katman 2" viewBox="0 0 2155.45 921.64"><defs><style> .cls-1 { fill: #233d74; stroke-width: 0px; } </style></defs><g id="katman_1" data-name="katman 1"><g><path class="cls-1" d="M1060.45,562.69c-43.7-2.3-87.6-15.4-125.2-37.4-87.2-51-140.2-143.4-140-244,.1-57.9,16.8-111.8,49.5-159.5,25.6-37.3,63.2-70.4,103.7-91,32.8-16.7,64.7-25.9,102.5-29.5,47.3-4.5,93.6,2.8,138.2,21.9,59.6,25.5,110,73.1,139.2,131.3,7.4,14.7,12.8,28.2,12.2,30-.3.8-.2,1.1.4.8,1-.6,6.7,17,10,30.9,5,20.8,6.9,36.8,7.4,60.1,2.2,98.5-46.8,189.8-130.4,243.1-39,24.9-87.4,40.8-130.5,42.9-6.6.3-14.2.7-17,.9-2.7.1-11.7-.1-20-.5h0ZM1115.45,553.89c31.9-4.9,55.4-12.2,83.5-26.2,72.5-36.1,125.2-102.1,144.4-181,5.4-22.2,6.9-36.2,7-63.9,0-28-.9-37.1-6.6-62-26.1-115.3-126.8-201.9-245.3-211.2-16.7-1.2-44.9-.5-59.5,1.7-49.5,7.2-94.9,27-134,58.1-10.9,8.7-32.7,30.5-41.4,41.4-59.4,74.6-76.4,171.6-45.8,261,17.8,51.8,51.3,97.5,95.7,130.5,14.4,10.8,24.7,17.1,40.3,24.9,30.2,15.2,60.6,24.3,92.2,27.6,6.3.6,12.2,1.3,13,1.5,4.6,1.1,44.7-.6,56.5-2.4h0Z"></path><path class="cls-1" d="M967.05,454.29c-22.5-3.6-41.2-10.6-53-19.9-4.6-3.7-5.1-4.4-5.7-9.4-1.2-9.5.2-34.9,2.5-46,2.6-12.3,3.6-15.2,5.4-15.2,1.1,0,1.5,2.8,1.9,13.3.5,11.2,1,14.5,3.5,21.9,9.4,27.2,32.8,43.8,61.8,43.8,31.1,0,58.3-18.6,66.7-45.5,1.8-5.6,2.2-9.5,2.2-19.5.1-12.8-.7-16.8-5.2-27-2.1-4.9-10.3-16.3-13.1-18.3-1-.6-17-15.4-35.7-32.7-70.5-65.5-66.9-61.9-73.8-75.6-8.1-16.3-10.7-37-6.7-53.8s10.9-29.4,21.9-40.2c11.3-11.2,23.9-17.7,41.7-21.6,8.8-1.9,143.4-1.9,155.5.1,42.6,6.8,67.6,25.8,77.1,58.6,3.3,11.2,3.3,34.1.1,45.9-4.4,15.9-12.7,29-24.6,38.8-6.3,5.2-20,12.8-23.1,12.8-2.6,0-1.7,1.9,1.3,2.5,32.8,6.5,57.8,25.7,69.9,53.6,6.4,14.7,7.8,22.4,7.7,41.9,0,20.5-1.6,27.8-8.8,42.5-13.2,26.9-38.5,43-76.6,49-13,2-179.7,2-192.9,0h0ZM1157.95,436.29c3.6-.9,10.3-3.6,15-5.8,6.9-3.2,10.1-5.5,16.6-12.1,6.7-6.7,8.9-9.7,12.7-17.6,6.8-14.1,8.2-21.1,8.2-42,0-15-.4-18.7-2.3-26-6.1-22.9-19-38.4-40.7-49.1-14.9-7.3-30-10.7-55.6-12.4-13.8-1-12.8-2.8,2.2-4.4,30-3.1,49.6-14.8,60.5-36.2,6.9-13.6,9.3-38.2,5.5-56.4-5.3-26-20.8-42.8-45.6-49.5-6.5-1.8-11.9-2.3-28.7-2.7l-20.8-.6v317.5l33.3-.5c27.7-.3,34.3-.7,39.7-2.2h0ZM1054.75,230.99l-.3-75.7-3.3-6.7c-6.1-12.4-19.1-22.4-34.2-26.3-9.3-2.4-27.1-1.7-36,1.4-16.9,5.9-29.5,18-36.1,34.6-2,5.2-2.3,7.7-2.3,18.5s.4,13.3,2.6,19.2c5.5,14.7,8.4,17.9,52.3,58.3,7.2,6.6,15.7,14.5,19,17.6,3.3,3,12.8,11.8,21,19.5,8.3,7.6,15.2,14.2,15.3,14.7,1.9,4.2,2.2-7.2,2-75.1h0Z"></path><g><path class="cls-1" d="M1057.13,543.42h-12.19v-.99c1.67,0,2.84-.18,3.52-.53.68-.35,1.02-.96,1.02-1.83v-14.91c0-.61-.08-1.05-.25-1.32-.16-.27-.47-.41-.92-.41-.24,0-.56.02-.99.07s-.87.11-1.34.19c-.47.08-.89.18-1.27.3v-1.16l6.84-1.94h1.02v19.17c0,.87.35,1.48,1.06,1.83.7.35,1.87.53,3.49.53v.99Z"></path><path class="cls-1" d="M1062.56,543.87l-.07-1.02c1.62-.19,3.11-.66,4.48-1.43,1.36-.76,2.5-1.81,3.4-3.14.9-1.33,1.49-2.94,1.74-4.85l-.21-.04c-.8.73-1.54,1.28-2.24,1.64-.69.37-1.49.55-2.38.55-1.93,0-3.47-.65-4.62-1.96-1.15-1.3-1.73-3.12-1.73-5.45s.63-4.22,1.89-5.55c1.26-1.33,2.99-1.99,5.2-1.99,1.76,0,3.18.44,4.26,1.3,1.08.87,1.87,2.03,2.38,3.49.5,1.46.76,3.05.76,4.79,0,2.28-.31,4.26-.92,5.96-.61,1.69-1.48,3.11-2.61,4.25-1.13,1.14-2.48,1.99-4.05,2.56-1.57.56-3.34.86-5.29.88ZM1068.34,533.51c1.03,0,1.94-.31,2.73-.93.79-.62,1.18-1.69,1.18-3.19s-.15-2.78-.44-3.91c-.29-1.13-.76-2.01-1.41-2.66-.65-.65-1.49-.97-2.52-.97-1.15,0-2.08.46-2.8,1.38-.72.92-1.08,2.5-1.08,4.76,0,1.65.36,2.98,1.08,4,.72,1.02,1.8,1.53,3.26,1.53Z"></path><path class="cls-1" d="M1085.12,543.7h-2.78l8.32-19.63h-7.86c-.66,0-1.16.06-1.52.18-.35.12-.64.37-.86.74-.22.38-.5.95-.83,1.73l-1.09-.11,1.41-5.39h13.46v1.09l-8.25,21.39Z"></path><path class="cls-1" d="M1103.59,543.84c-1.74,0-3.17-.43-4.28-1.29-1.12-.86-1.94-2.01-2.47-3.45-.53-1.45-.79-3.03-.79-4.74,0-2.12.32-4.01.97-5.67.65-1.67,1.55-3.08,2.71-4.25s2.54-2.07,4.12-2.71,3.33-1,5.23-1.08l.07,1.02c-1.64.24-3.15.76-4.51,1.59s-2.5,1.89-3.42,3.21c-.92,1.32-1.53,2.83-1.83,4.55l.25.04c.73-.71,1.45-1.25,2.15-1.62s1.52-.56,2.43-.56c1.93,0,3.47.66,4.62,1.97,1.15,1.32,1.73,3.13,1.73,5.43s-.61,4.26-1.82,5.59c-1.21,1.33-2.93,1.99-5.16,1.99ZM1103.73,542.61c1.17,0,2.1-.45,2.77-1.36.67-.9,1-2.47,1-4.71,0-1.6-.36-2.94-1.08-4.02s-1.8-1.62-3.26-1.62c-.68,0-1.32.13-1.92.41-.6.27-1.09.71-1.46,1.32-.38.61-.56,1.43-.56,2.47,0,1.46.16,2.75.49,3.88.33,1.13.83,2.01,1.5,2.66.67.65,1.51.97,2.52.97Z"></path></g></g><g><path class="cls-1" d="M46.55,920.19c-17.9-2.4-39-9.8-44.2-15.5-2.6-2.9-3.2-20.1-1-33.8,1.8-11.6,3-15.1,5.1-15.1,1.2,0,1.5,1.2,1.5,5.3,0,24.5,14.3,42.7,38.1,48.3,3.6.9,10.8,1.5,16.4,1.5,23.6-.1,42.2-9.6,50.1-25.6,2.7-5.6,2.9-6.8,2.9-18s-.2-12.5-2.7-17.5c-1.5-3-4.5-7.4-6.7-9.6-2.2-2.3-22.4-18.4-44.9-35.8-22.6-17.3-42.4-33.3-44.1-35.5-7.9-9.9-12.9-26.5-11.8-39.1,1.5-17.4,10.5-32,26.1-42.1,13-8.5,26.5-11.5,47.6-10.5,8,.4,17,1.2,20,1.7s9.2,1.2,13.8,1.5l8.2.7v20.3c0,16.6-.3,20.4-1.4,20.4-.9,0-1.6-1.7-2-4.7-1.9-14.4-13.2-25.2-29.6-28.3-7.9-1.5-23.7-1.2-30.5.5-22.1,5.8-35.8,23.3-32.5,41.7,1.6,8.8,4.1,13.9,9.6,19.8,2.6,2.8,22.7,18.9,44.8,35.8,22,16.9,41.7,32.4,43.8,34.6,5,5.1,10.4,16.3,12.4,25.6,7.3,34.3-16,66.4-53.2,73.6-9.2,1.7-22.5,1.7-35.8-.2h0Z"></path><path class="cls-1" d="M1201.95,919.19c-1.4-.2-5.9-.9-10-1.5-16.7-2.4-34.8-8.6-46.8-16-23.1-14.2-35.1-33.5-38.2-61.7-2.2-19.7,2-39.3,11.3-53.4,6.7-9.9,25.7-26.2,34.1-29.1.6-.2-.5-3.6-2.6-7.8-7.5-14.7-10.8-28.6-10.8-44.9.1-26.1,12.3-46.1,35.7-57.9,29.8-15.1,71.7-11.2,98.9,9.3,7.1,5.3,9.3,8.3,8.8,11.7-.2,1.3-1.5,10.1-2.9,19.4-3.3,21.5-3.2,21.5-5,21.5-1.1,0-1.5-1.2-1.5-4.7,0-7.5-2.7-18.1-6.5-26.1-7.2-15.2-21.1-25.7-38-28.7-10.1-1.8-13.4-1.8-21.7-.1-9.8,2.1-17.2,6.1-24.8,13.2-11.3,10.7-17,24.8-17,42,0,15.9,4.1,28,15.3,44.8,10.7,16,52.9,56.5,103.6,99.4,8,6.8,14.8,11.9,15.2,11.5,1.3-1.4,4.9-13.1,6.4-21.1,4.3-22.5-1.2-48-13.4-61.6-4-4.4-11.6-7.6-18.3-7.6-4.5,0-5.8-.3-5.8-1.5,0-1.3,4.9-1.5,38.5-1.5s38.5.2,38.5,1.5c0,1.1-1.2,1.5-5.1,1.5-7.2,0-11.6,2.4-14.1,7.6-2.1,4.1-2.1,4.4-.4,14.1,2.3,13.9,2.2,36.4-.3,49-2,10.2-5.1,19.4-9.4,27.9l-2.6,5.1,10.2,8.5c22.3,18.6,38,27.8,51.3,30.2,6.2,1.1,7.4,1.6,7.4,3.3,0,1.4-1.6,1.5-13.7,1-15.1-.7-27.2-2.5-37.3-5.8-8.3-2.7-21-9-27.2-13.4-2.6-1.9-5.1-3.5-5.4-3.5s-3.4,2.2-6.8,4.9c-6.8,5.4-18.4,12.1-25.6,14.6-13.7,4.9-18.9,5.7-40.5,6-11.5.2-22.1.1-23.5-.1h0ZM1244.75,907.19c10.6-2.5,23.7-9.4,32.5-16.8,4.2-3.7,7.7-7,7.7-7.5s-1.7-2.1-3.7-3.7c-5.3-4-42.9-36-54.3-46.2-32.6-29.2-50.6-47-65.2-64.6l-2.5-2.9-4.4,4.8c-8.9,9.6-14.1,19.2-18.1,33.3-1.9,6.5-2.2,10.3-2.3,24.7,0,15.1.3,17.8,2.3,24.5,9,28.8,30.3,47.3,62.2,54.1,11.4,2.4,36.3,2.6,45.8.3h0Z"></path><path class="cls-1" d="M180.95,915.29c0-1,1-1.5,3.3-1.5,8.8,0,17.3-4.7,21.5-11.9l2.7-4.6v-97c0-53.3-.3-98.2-.8-99.8-1.1-4-7.5-10.7-12.2-12.8-2.2-1-6.4-2.1-9.2-2.5-3.5-.4-5.3-1.1-5.3-2,0-1.2,6.8-1.4,40-1.4s40,.3,40,1.3c0,.8-2.5,1.7-6.8,2.3-8,1.3-13.8,4.7-17.9,10.6l-2.8,4.1-.3,102.9-.2,102.8h31.3c17.2,0,35.1-.5,39.7-1,14.9-1.9,24.4-5.8,33.4-14.1,6.5-5.9,9.9-10.6,15.9-21.7,2.3-4.2,4.8-7.8,5.5-8,.6-.1,1.2,0,1.2.3s-18,47.5-20.5,53.8c-.7,1.6-5.4,1.7-79.6,1.7-69.5,0-78.9-.2-78.9-1.5h0Z"></path><path class="cls-1" d="M590.95,915.29c0-1,1-1.5,3.3-1.5,9.3,0,18.9-5.6,22.6-13.3,2.1-4.3,2.1-5,2.1-101.6s-.1-97.3-1.9-100.9c-3.9-7.6-10.4-11.6-20.5-12.8-3.7-.5-5.6-1.1-5.6-2,0-1.2,10.8-1.4,64.8-1.4,59.7,0,65.6-.2,76.2-2,6.3-1.1,12.5-2.2,13.8-2.6l2.2-.6v21.6c0,18.5-.2,21.6-1.5,21.6-1.1,0-1.5-1.1-1.5-4.2,0-7.3-1.9-12-6.5-16.5-6.5-6.2-8.7-6.5-55-6.1l-40,.3-.3,50.3-.2,50.3,36.9-.3c35.5-.3,37.1-.4,39.7-2.4,4.9-3.6,6.7-7,7.2-13.2.3-4.1.8-5.9,1.8-5.9,1.2,0,1.4,4.7,1.4,27.3s-.2,27.3-1.4,26.8c-.8-.3-1.5-2.6-1.8-6-.5-5.8-2.4-9.3-7.2-12.8-2.6-2-4.2-2.1-39.7-2.4l-36.9-.3v101.3l36.8-.5c39.3-.5,43.4-1,54.1-5.8,13-5.9,21.5-14.8,29.6-30.9,2.8-5.6,4.4-7.7,5.3-7.1,1,.6-1.2,7.3-9.1,27.7l-10.3,26.9-79.2.3c-70,.2-79.2,0-79.2-1.3h0Z"></path><path class="cls-1" d="M800.95,915.29c0-1,1-1.5,3.3-1.5,9.5,0,19.4-5.8,22.8-13.5,1.8-3.8,1.9-9.3,1.9-101.2,0-66.1-.3-98.1-1.1-100-2.8-7.4-12.1-13.5-21.1-13.7-4.9-.1-5.8-.4-5.8-1.9,0-1.8,2-1.9,52.8-1.4,56.9.5,63.9,1,79.6,6.1,32.8,10.7,48.9,32.8,47.3,65-1.5,31.8-20.9,55.8-51.2,63.2-10.8,2.7-29.6,2.5-41-.5-11.1-2.9-19.5-6.5-19.5-8.4,0-1.2.7-1.3,3.7-.7,18.3,4.2,39.9.6,54.5-8.8,8.9-5.9,14.5-12.1,19.9-22.5,4.8-9.2,6.9-18.1,6.9-29.7,0-20.9-9.4-36.7-27-45.3-12.1-6-18-6.9-47.8-7.4l-26.2-.5.2,102.4c.3,113-.3,103.9,7.2,111.6,4.4,4.6,10.8,7.2,17.8,7.2,2.7,0,3.8.4,3.8,1.5,0,1.3-5.2,1.5-40.5,1.5s-40.5-.2-40.5-1.5h0Z"></path><path class="cls-1" d="M1467.65,915.39c-.5-1.3.1-1.6,2.6-1.6,11.5,0,22.5-8.1,24.7-18.1.8-3.9,1-31,.8-99.4l-.3-94.1-2.5-4.9c-3.4-6.5-10.5-11-19-12-3.6-.4-6.1-1.2-6.4-2.1-.4-1.2,6.6-1.3,46.7-.8,49.6.6,61,1.5,72.8,5.4,25.7,8.7,38.3,23.4,40.5,47.2,1.3,14.5-3.4,26.7-14.6,37.8-6.6,6.6-15,11.8-22.7,14.1-2.4.7-4.3,1.5-4.3,1.8s3.6,1.4,8.1,2.4c41.2,9.3,63.3,40.6,54.3,77.1-4.8,19.4-20.4,34.4-43.9,42.1-16.8,5.5-21.5,5.8-81.1,6.2-49.4.4-55.2.3-55.7-1.1h0ZM1578.45,904.29c9.8-1.7,21.2-6.5,27.5-11.7,21.1-16.9,23.8-56.3,5.2-76.9-12.7-14.2-33.1-21.2-67.4-23.5-12.7-.8-14.9-2.8-3.5-3.1,29.2-1,48.7-10.6,57-28,3.1-6.6,3.2-7.2,3.2-20.3,0-14.9-.8-18.8-5.7-27-9.2-15.2-25.3-21-59-21h-16.8v213h25.4c18.2,0,27.8-.4,34.1-1.5h0Z"></path><path class="cls-1" d="M1689.95,915.39c0-.9,1.9-1.5,6-1.9,10.3-1.1,18.1-6.8,21.1-15.4,2-5.5,2.1-193,.1-198.4-1.6-4.5-6.8-10-11.5-12.2-1.9-1-6.3-2-9.6-2.3-4.2-.5-6.1-1.1-6.1-2,0-1.2,10.9-1.4,64.8-1.4,59.6,0,65.6-.2,76.2-2,6.3-1,12.5-2.2,13.8-2.6l2.2-.6v21.6c0,18.5-.2,21.6-1.5,21.6-1.2,0-1.5-1.3-1.5-5.6,0-6.5-1.9-11.1-6.3-15.4-5.9-5.7-8.9-6.1-54.2-5.8l-41,.3-.3,50.3-.2,50.2h35.7c34,0,35.9-.1,39.9-2.1,5.2-2.5,8.4-8.3,8.4-15.2,0-3.7.3-4.5,1.5-4.1,1.3.5,1.5,4.5,1.5,27s-.2,26.4-1.5,26.4c-1.1,0-1.5-1.1-1.5-4.2,0-5.1-3.1-11.6-6.8-14.3-2.6-1.9-4.5-2-40-2.3l-37.2-.3.2,50.3.3,50.3h36c40-.1,45.2-.7,56.7-6.5,11.8-6,19.8-14.6,27.4-29.3,2.1-4.2,4.6-7.8,5.5-8,2-.5,2.1-.9-6.4,20.8-3,7.7-7.2,18.6-9.3,24.2l-3.9,10.3h-79.2c-66.1,0-79.3-.2-79.3-1.4h0ZM1827.65,820.09c-.3-1-.5-.2-.5,1.7s.2,2.7.5,1.8c.2-1,.2-2.6,0-3.5ZM1827.65,775.09c-.3-1-.5-.2-.5,1.7s.2,2.7.5,1.8c.2-1,.2-2.6,0-3.5Z"></path><path class="cls-1" d="M1900.95,915.49c0-1,1.7-1.6,5.2-2,11.6-1.4,20-9.3,21.3-20,.3-2.8.5-47.3.3-98.7l-.3-93.5-2.2-4.2c-3.8-7-13-12.3-21.5-12.3-1.8,0-2.8-.5-2.8-1.5,0-1.3,8.9-1.4,71.3-.9,39.1.2,75.5.9,80.7,1.5,48.3,5.4,83.8,32.5,97.1,74.1,4.4,13.8,5.4,21.6,5.4,41.3,0,25.4-2.8,39.1-11.8,57-5.2,10.4-8.5,15.2-16.6,23.7-17.6,18.7-38.7,29.1-69.8,34.5-13.8,2.3-156.3,3.3-156.3,1h0ZM2046.95,904.29c22.8-3,40.2-11.6,54.6-26.6,7.6-8.1,11.6-14,16.4-24.2,14.5-30.9,14.6-76.3.2-107.9-4.2-9.3-9.1-16.5-16.3-24.2-10.4-11.2-21.6-18.2-36.6-23.1-14.2-4.7-24-5.5-70.5-5.5h-42.8v213h42.3c30.7,0,45.1-.4,52.7-1.5h0Z"></path><path class="cls-1" d="M382.22,915.29c0-1,1-1.5,3.3-1.5,9.3,0,18.9-5.6,22.6-13.3,2.1-4.3,2.1-5,2.1-101.6s-.1-97.3-1.9-100.9c-3.9-7.6-10.4-11.6-20.5-12.8-3.7-.5-5.6-1.1-5.6-2,0-1.2,10.8-1.4,64.8-1.4,59.7,0,65.6-.2,76.2-2,6.3-1.1,12.5-2.2,13.8-2.6l2.2-.6v21.6c0,18.5-.2,21.6-1.5,21.6-1.1,0-1.5-1.1-1.5-4.2,0-7.3-1.9-12-6.5-16.5-6.5-6.2-8.7-6.5-55-6.1l-40,.3-.3,50.3-.2,50.3,36.9-.3c35.5-.3,37.1-.4,39.7-2.4,4.9-3.6,6.7-7,7.2-13.2.3-4.1.8-5.9,1.8-5.9,1.2,0,1.4,4.7,1.4,27.3s-.2,27.3-1.4,26.8c-.8-.3-1.5-2.6-1.8-6-.5-5.8-2.4-9.3-7.2-12.8-2.6-2-4.2-2.1-39.7-2.4l-36.9-.3v101.3l36.8-.5c39.3-.5,43.4-1,54.1-5.8,13-5.9,21.5-14.8,29.6-30.9,2.8-5.6,4.4-7.7,5.3-7.1,1,.6-1.2,7.3-9.1,27.7l-10.3,26.9-79.2.3c-70,.2-79.2,0-79.2-1.3h0Z"></path></g></g></svg> 