<?xml version="1.0" encoding="UTF-8"?> <svg xmlns="http://www.w3.org/2000/svg" id="katman_2" data-name="katman 2" viewBox="0 0 2155.45 283.91"><defs><style> .cls-1 { fill: #233d74; stroke-width: 0px; } </style></defs><g id="katman_2-2" data-name="katman 2"><g><path class="cls-1" d="M46.55,282.46c-17.9-2.4-39-9.8-44.2-15.5-2.6-2.9-3.2-20.1-1-33.8,1.8-11.6,3-15.1,5.1-15.1,1.2,0,1.5,1.2,1.5,5.3,0,24.5,14.3,42.7,38.1,48.3,3.6.9,10.8,1.5,16.4,1.5,23.6-.1,42.2-9.6,50.1-25.6,2.7-5.6,2.9-6.8,2.9-18s-.2-12.5-2.7-17.5c-1.5-3-4.5-7.4-6.7-9.6-2.2-2.3-22.4-18.4-44.9-35.8-22.6-17.3-42.4-33.3-44.1-35.5-7.9-9.9-12.9-26.5-11.8-39.1,1.5-17.4,10.5-32,26.1-42.1,13-8.5,26.5-11.5,47.6-10.5,8,.4,17,1.2,20,1.7s9.2,1.2,13.8,1.5l8.2.7v20.3c0,16.6-.3,20.4-1.4,20.4-.9,0-1.6-1.7-2-4.7-1.9-14.4-13.2-25.2-29.6-28.3-7.9-1.5-23.7-1.2-30.5.5-22.1,5.8-35.8,23.3-32.5,41.7,1.6,8.8,4.1,13.9,9.6,19.8,2.6,2.8,22.7,18.9,44.8,35.8,22,16.9,41.7,32.4,43.8,34.6,5,5.1,10.4,16.3,12.4,25.6,7.3,34.3-16,66.4-53.2,73.6-9.2,1.7-22.5,1.7-35.8-.2h0Z"></path><path class="cls-1" d="M1201.95,281.46c-1.4-.2-5.9-.9-10-1.5-16.7-2.4-34.8-8.6-46.8-16-23.1-14.2-35.1-33.5-38.2-61.7-2.2-19.7,2-39.3,11.3-53.4,6.7-9.9,25.7-26.2,34.1-29.1.6-.2-.5-3.6-2.6-7.8-7.5-14.7-10.8-28.6-10.8-44.9.1-26.1,12.3-46.1,35.7-57.9,29.8-15.1,71.7-11.2,98.9,9.3,7.1,5.3,9.3,8.3,8.8,11.7-.2,1.3-1.5,10.1-2.9,19.4-3.3,21.5-3.2,21.5-5,21.5-1.1,0-1.5-1.2-1.5-4.7,0-7.5-2.7-18.1-6.5-26.1-7.2-15.2-21.1-25.7-38-28.7-10.1-1.8-13.4-1.8-21.7-.1-9.8,2.1-17.2,6.1-24.8,13.2-11.3,10.7-17,24.8-17,42,0,15.9,4.1,28,15.3,44.8,10.7,16,52.9,56.5,103.6,99.4,8,6.8,14.8,11.9,15.2,11.5,1.3-1.4,4.9-13.1,6.4-21.1,4.3-22.5-1.2-48-13.4-61.6-4-4.4-11.6-7.6-18.3-7.6-4.5,0-5.8-.3-5.8-1.5,0-1.3,4.9-1.5,38.5-1.5s38.5.2,38.5,1.5c0,1.1-1.2,1.5-5.1,1.5-7.2,0-11.6,2.4-14.1,7.6-2.1,4.1-2.1,4.4-.4,14.1,2.3,13.9,2.2,36.4-.3,49-2,10.2-5.1,19.4-9.4,27.9l-2.6,5.1,10.2,8.5c22.3,18.6,38,27.8,51.3,30.2,6.2,1.1,7.4,1.6,7.4,3.3,0,1.4-1.6,1.5-13.7,1-15.1-.7-27.2-2.5-37.3-5.8-8.3-2.7-21-9-27.2-13.4-2.6-1.9-5.1-3.5-5.4-3.5s-3.4,2.2-6.8,4.9c-6.8,5.4-18.4,12.1-25.6,14.6-13.7,4.9-18.9,5.7-40.5,6-11.5.2-22.1.1-23.5-.1h0ZM1244.75,269.46c10.6-2.5,23.7-9.4,32.5-16.8,4.2-3.7,7.7-7,7.7-7.5s-1.7-2.1-3.7-3.7c-5.3-4-42.9-36-54.3-46.2-32.6-29.2-50.6-47-65.2-64.6l-2.5-2.9-4.4,4.8c-8.9,9.6-14.1,19.2-18.1,33.3-1.9,6.5-2.2,10.3-2.3,24.7,0,15.1.3,17.8,2.3,24.5,9,28.8,30.3,47.3,62.2,54.1,11.4,2.4,36.3,2.6,45.8.3h0Z"></path><path class="cls-1" d="M180.95,277.56c0-1,1-1.5,3.3-1.5,8.8,0,17.3-4.7,21.5-11.9l2.7-4.6v-97c0-53.3-.3-98.2-.8-99.8-1.1-4-7.5-10.7-12.2-12.8-2.2-1-6.4-2.1-9.2-2.5-3.5-.4-5.3-1.1-5.3-2,0-1.2,6.8-1.4,40-1.4s40,.3,40,1.3c0,.8-2.5,1.7-6.8,2.3-8,1.3-13.8,4.7-17.9,10.6l-2.8,4.1-.3,102.9-.2,102.8h31.3c17.2,0,35.1-.5,39.7-1,14.9-1.9,24.4-5.8,33.4-14.1,6.5-5.9,9.9-10.6,15.9-21.7,2.3-4.2,4.8-7.8,5.5-8,.6-.1,1.2,0,1.2.3s-18,47.5-20.5,53.8c-.7,1.6-5.4,1.7-79.6,1.7-69.5,0-78.9-.2-78.9-1.5h0Z"></path><path class="cls-1" d="M590.95,277.56c0-1,1-1.5,3.3-1.5,9.3,0,18.9-5.6,22.6-13.3,2.1-4.3,2.1-5,2.1-101.6s-.1-97.3-1.9-100.9c-3.9-7.6-10.4-11.6-20.5-12.8-3.7-.5-5.6-1.1-5.6-2,0-1.2,10.8-1.4,64.8-1.4,59.7,0,65.6-.2,76.2-2,6.3-1.1,12.5-2.2,13.8-2.6l2.2-.6v21.6c0,18.5-.2,21.6-1.5,21.6-1.1,0-1.5-1.1-1.5-4.2,0-7.3-1.9-12-6.5-16.5-6.5-6.2-8.7-6.5-55-6.1l-40,.3-.3,50.3-.2,50.3,36.9-.3c35.5-.3,37.1-.4,39.7-2.4,4.9-3.6,6.7-7,7.2-13.2.3-4.1.8-5.9,1.8-5.9,1.2,0,1.4,4.7,1.4,27.3s-.2,27.3-1.4,26.8c-.8-.3-1.5-2.6-1.8-6-.5-5.8-2.4-9.3-7.2-12.8-2.6-2-4.2-2.1-39.7-2.4l-36.9-.3v101.3l36.8-.5c39.3-.5,43.4-1,54.1-5.8,13-5.9,21.5-14.8,29.6-30.9,2.8-5.6,4.4-7.7,5.3-7.1,1,.6-1.2,7.3-9.1,27.7l-10.3,26.9-79.2.3c-70,.2-79.2,0-79.2-1.3h0Z"></path><path class="cls-1" d="M800.95,277.56c0-1,1-1.5,3.3-1.5,9.5,0,19.4-5.8,22.8-13.5,1.8-3.8,1.9-9.3,1.9-101.2,0-66.1-.3-98.1-1.1-100-2.8-7.4-12.1-13.5-21.1-13.7-4.9-.1-5.8-.4-5.8-1.9,0-1.8,2-1.9,52.8-1.4,56.9.5,63.9,1,79.6,6.1,32.8,10.7,48.9,32.8,47.3,65-1.5,31.8-20.9,55.8-51.2,63.2-10.8,2.7-29.6,2.5-41-.5-11.1-2.9-19.5-6.5-19.5-8.4,0-1.2.7-1.3,3.7-.7,18.3,4.2,39.9.6,54.5-8.8,8.9-5.9,14.5-12.1,19.9-22.5,4.8-9.2,6.9-18.1,6.9-29.7,0-20.9-9.4-36.7-27-45.3-12.1-6-18-6.9-47.8-7.4l-26.2-.5.2,102.4c.3,113-.3,103.9,7.2,111.6,4.4,4.6,10.8,7.2,17.8,7.2,2.7,0,3.8.4,3.8,1.5,0,1.3-5.2,1.5-40.5,1.5s-40.5-.2-40.5-1.5h0Z"></path><path class="cls-1" d="M1467.65,277.66c-.5-1.3.1-1.6,2.6-1.6,11.5,0,22.5-8.1,24.7-18.1.8-3.9,1-31,.8-99.4l-.3-94.1-2.5-4.9c-3.4-6.5-10.5-11-19-12-3.6-.4-6.1-1.2-6.4-2.1-.4-1.2,6.6-1.3,46.7-.8,49.6.6,61,1.5,72.8,5.4,25.7,8.7,38.3,23.4,40.5,47.2,1.3,14.5-3.4,26.7-14.6,37.8-6.6,6.6-15,11.8-22.7,14.1-2.4.7-4.3,1.5-4.3,1.8s3.6,1.4,8.1,2.4c41.2,9.3,63.3,40.6,54.3,77.1-4.8,19.4-20.4,34.4-43.9,42.1-16.8,5.5-21.5,5.8-81.1,6.2-49.4.4-55.2.3-55.7-1.1h0ZM1578.45,266.56c9.8-1.7,21.2-6.5,27.5-11.7,21.1-16.9,23.8-56.3,5.2-76.9-12.7-14.2-33.1-21.2-67.4-23.5-12.7-.8-14.9-2.8-3.5-3.1,29.2-1,48.7-10.6,57-28,3.1-6.6,3.2-7.2,3.2-20.3,0-14.9-.8-18.8-5.7-27-9.2-15.2-25.3-21-59-21h-16.8v213h25.4c18.2,0,27.8-.4,34.1-1.5h0Z"></path><path class="cls-1" d="M1689.95,277.66c0-.9,1.9-1.5,6-1.9,10.3-1.1,18.1-6.8,21.1-15.4,2-5.5,2.1-193,.1-198.4-1.6-4.5-6.8-10-11.5-12.2-1.9-1-6.3-2-9.6-2.3-4.2-.5-6.1-1.1-6.1-2,0-1.2,10.9-1.4,64.8-1.4,59.6,0,65.6-.2,76.2-2,6.3-1,12.5-2.2,13.8-2.6l2.2-.6v21.6c0,18.5-.2,21.6-1.5,21.6-1.2,0-1.5-1.3-1.5-5.6,0-6.5-1.9-11.1-6.3-15.4-5.9-5.7-8.9-6.1-54.2-5.8l-41,.3-.3,50.3-.2,50.2h35.7c34,0,35.9-.1,39.9-2.1,5.2-2.5,8.4-8.3,8.4-15.2,0-3.7.3-4.5,1.5-4.1,1.3.5,1.5,4.5,1.5,27s-.2,26.4-1.5,26.4c-1.1,0-1.5-1.1-1.5-4.2,0-5.1-3.1-11.6-6.8-14.3-2.6-1.9-4.5-2-40-2.3l-37.2-.3.2,50.3.3,50.3h36c40-.1,45.2-.7,56.7-6.5,11.8-6,19.8-14.6,27.4-29.3,2.1-4.2,4.6-7.8,5.5-8,2-.5,2.1-.9-6.4,20.8-3,7.7-7.2,18.6-9.3,24.2l-3.9,10.3h-79.2c-66.1,0-79.3-.2-79.3-1.4h0ZM1827.65,182.36c-.3-1-.5-.2-.5,1.7s.2,2.7.5,1.8c.2-1,.2-2.6,0-3.5ZM1827.65,137.36c-.3-1-.5-.2-.5,1.7s.2,2.7.5,1.8c.2-1,.2-2.6,0-3.5Z"></path><path class="cls-1" d="M1900.95,277.76c0-1,1.7-1.6,5.2-2,11.6-1.4,20-9.3,21.3-20,.3-2.8.5-47.3.3-98.7l-.3-93.5-2.2-4.2c-3.8-7-13-12.3-21.5-12.3-1.8,0-2.8-.5-2.8-1.5,0-1.3,8.9-1.4,71.3-.9,39.1.2,75.5.9,80.7,1.5,48.3,5.4,83.8,32.5,97.1,74.1,4.4,13.8,5.4,21.6,5.4,41.3,0,25.4-2.8,39.1-11.8,57-5.2,10.4-8.5,15.2-16.6,23.7-17.6,18.7-38.7,29.1-69.8,34.5-13.8,2.3-156.3,3.3-156.3,1h0ZM2046.95,266.56c22.8-3,40.2-11.6,54.6-26.6,7.6-8.1,11.6-14,16.4-24.2,14.5-30.9,14.6-76.3.2-107.9-4.2-9.3-9.1-16.5-16.3-24.2-10.4-11.2-21.6-18.2-36.6-23.1-14.2-4.7-24-5.5-70.5-5.5h-42.8v213h42.3c30.7,0,45.1-.4,52.7-1.5h0Z"></path><path class="cls-1" d="M382.22,277.56c0-1,1-1.5,3.3-1.5,9.3,0,18.9-5.6,22.6-13.3,2.1-4.3,2.1-5,2.1-101.6s-.1-97.3-1.9-100.9c-3.9-7.6-10.4-11.6-20.5-12.8-3.7-.5-5.6-1.1-5.6-2,0-1.2,10.8-1.4,64.8-1.4,59.7,0,65.6-.2,76.2-2,6.3-1.1,12.5-2.2,13.8-2.6l2.2-.6v21.6c0,18.5-.2,21.6-1.5,21.6-1.1,0-1.5-1.1-1.5-4.2,0-7.3-1.9-12-6.5-16.5-6.5-6.2-8.7-6.5-55-6.1l-40,.3-.3,50.3-.2,50.3,36.9-.3c35.5-.3,37.1-.4,39.7-2.4,4.9-3.6,6.7-7,7.2-13.2.3-4.1.8-5.9,1.8-5.9,1.2,0,1.4,4.7,1.4,27.3s-.2,27.3-1.4,26.8c-.8-.3-1.5-2.6-1.8-6-.5-5.8-2.4-9.3-7.2-12.8-2.6-2-4.2-2.1-39.7-2.4l-36.9-.3v101.3l36.8-.5c39.3-.5,43.4-1,54.1-5.8,13-5.9,21.5-14.8,29.6-30.9,2.8-5.6,4.4-7.7,5.3-7.1,1,.6-1.2,7.3-9.1,27.7l-10.3,26.9-79.2.3c-70,.2-79.2,0-79.2-1.3h0Z"></path></g></g></svg> 